<svg width="108" height="20" viewBox="0 0 108 20" fill="none" xmlns="http://www.w3.org/2000/svg">
<path d="M11.875 19C10.9417 19 10.275 18.8167 9.875 18.45C9.475 18.0833 9.275 17.5583 9.275 16.875C9.275 16.5083 9.30833 15.8583 9.375 14.925C9.44167 13.9917 9.51667 12.9417 9.6 11.775H5.15L4.65 18.625C4.63333 18.7583 4.6 18.8583 4.55 18.925C4.5 18.975 4.4 19 4.25 19H2.875C1.94167 19 1.275 18.8167 0.875 18.45C0.475 18.0833 0.275 17.5583 0.275 16.875C0.275 16.5417 0.3 15.975 0.35 15.175C0.4 14.3583 0.466667 13.4333 0.55 12.4C0.633333 11.3667 0.716667 10.275 0.8 9.125C0.883333 7.975 0.966667 6.89167 1.05 5.875C1.13333 4.85833 1.2 3.96667 1.25 3.2C1.3 2.43333 1.325 1.90833 1.325 1.625C1.325 1.375 1.45833 1.25 1.725 1.25H3.1C4.11667 1.25 4.8 1.46667 5.15 1.9C5.5 2.33333 5.675 2.975 5.675 3.825C5.675 3.95833 5.65 4.43333 5.6 5.25C5.55 6.05 5.48333 7.01667 5.4 8.15H9.875C9.925 7.41667 9.975 6.7 10.025 6C10.0917 5.3 10.1417 4.65833 10.175 4.075C10.225 3.49167 10.2583 2.99167 10.275 2.575C10.3083 2.14167 10.325 1.825 10.325 1.625C10.325 1.375 10.4583 1.25 10.725 1.25H12.1C13.1167 1.25 13.8 1.46667 14.15 1.9C14.5 2.33333 14.675 2.975 14.675 3.825C14.675 3.90833 14.6583 4.175 14.625 4.625C14.6083 5.075 14.575 5.64167 14.525 6.325C14.475 7.00833 14.4167 7.775 14.35 8.625C14.3 9.45833 14.2417 10.3167 14.175 11.2C14.125 12.0833 14.0667 12.95 14 13.8C13.95 14.6333 13.9 15.3917 13.85 16.075C13.8 16.7583 13.7583 17.3333 13.725 17.8C13.6917 18.25 13.6667 18.525 13.65 18.625C13.6333 18.7583 13.6 18.8583 13.55 18.925C13.5 18.975 13.4 19 13.25 19H11.875ZM25.9707 0.975C27.1874 0.975 28.229 1.15 29.0957 1.5C29.9624 1.83333 30.6707 2.33333 31.2207 3C31.7707 3.65 32.1707 4.45 32.4207 5.4C32.6707 6.33333 32.7957 7.4 32.7957 8.6C32.7957 9.26667 32.7457 9.99167 32.6457 10.775C32.5624 11.5583 32.3957 12.35 32.1457 13.15C31.9124 13.9333 31.5874 14.6917 31.1707 15.425C30.754 16.1583 30.2124 16.8083 29.5457 17.375C28.8957 17.9417 28.1124 18.4 27.1957 18.75C26.279 19.0833 25.1957 19.25 23.9457 19.25C22.5624 19.25 21.4124 19.0417 20.4957 18.625C19.5957 18.2083 18.8707 17.65 18.3207 16.95C17.7874 16.2333 17.404 15.3917 17.1707 14.425C16.954 13.4583 16.8457 12.425 16.8457 11.325C16.8457 10.025 16.9957 8.75833 17.2957 7.525C17.5957 6.275 18.0957 5.16667 18.7957 4.2C19.5124 3.23333 20.454 2.45833 21.6207 1.875C22.7874 1.275 24.2374 0.975 25.9707 0.975ZM25.4457 4.85C24.8624 4.85 24.354 4.95833 23.9207 5.175C23.504 5.375 23.1457 5.65 22.8457 6C22.5624 6.35 22.329 6.74167 22.1457 7.175C21.979 7.60833 21.8457 8.05833 21.7457 8.525C21.6457 8.975 21.579 9.41667 21.5457 9.85C21.5124 10.2667 21.4957 10.6417 21.4957 10.975C21.4957 12.4917 21.7457 13.6 22.2457 14.3C22.7624 15 23.4874 15.35 24.4207 15.35C25.1874 15.35 25.8124 15.1083 26.2957 14.625C26.779 14.125 27.154 13.5333 27.4207 12.85C27.704 12.15 27.8957 11.4333 27.9957 10.7C28.0957 9.95 28.1457 9.31667 28.1457 8.8C28.1457 7.58333 27.9374 6.625 27.5207 5.925C27.104 5.20833 26.4124 4.85 25.4457 4.85ZM50.7441 5.675C50.6108 6.075 50.4358 6.6 50.2191 7.25C50.0191 7.88333 49.7941 8.58333 49.5441 9.35C49.2941 10.1167 49.0358 10.9333 48.7691 11.8C48.5025 12.65 48.2275 13.4833 47.9441 14.3C47.6775 15.1167 47.4108 15.9 47.1441 16.65C46.8775 17.3833 46.6358 18.025 46.4191 18.575C46.3525 18.7083 46.2108 18.8167 45.9941 18.9C45.7941 18.9667 45.4691 19 45.0191 19C44.7358 19 44.4441 18.9833 44.1441 18.95C43.8441 18.9167 43.5608 18.85 43.2941 18.75C43.0441 18.65 42.8191 18.5167 42.6191 18.35C42.4358 18.1833 42.2941 17.975 42.1941 17.725C41.9441 16.875 41.7025 15.9333 41.4691 14.9C41.2525 13.85 41.0358 12.7833 40.8191 11.7C40.6025 10.6167 40.3858 9.55833 40.1691 8.525C39.9691 7.475 39.7608 6.525 39.5441 5.675C39.5441 5.90833 39.5358 6.30833 39.5191 6.875C39.5025 7.44167 39.4858 8.1 39.4691 8.85C39.4525 9.6 39.4275 10.4083 39.3941 11.275C39.3775 12.1417 39.3608 12.9917 39.3441 13.825C39.3275 14.6417 39.3108 15.4083 39.2941 16.125C39.2775 16.825 39.2691 17.4 39.2691 17.85C39.2691 18.35 39.2358 18.6667 39.1691 18.8C39.1191 18.9333 39.0191 19 38.8691 19H37.4941C36.5441 19 35.8691 18.8167 35.4691 18.45C35.0858 18.0667 34.8941 17.5083 34.8941 16.775C34.8941 16.575 34.9025 16.2417 34.9191 15.775C34.9525 15.2917 34.9941 14.725 35.0441 14.075C35.0941 13.425 35.1441 12.7167 35.1941 11.95C35.2608 11.1667 35.3275 10.375 35.3941 9.575C35.4775 8.49167 35.5441 7.59167 35.5941 6.875C35.6608 6.14167 35.7108 5.53333 35.7441 5.05C35.7775 4.56667 35.8025 4.175 35.8191 3.875C35.8525 3.575 35.8691 3.30833 35.8691 3.075C35.8858 2.84167 35.8941 2.625 35.8941 2.425C35.9108 2.20833 35.9191 1.94167 35.9191 1.625C35.9191 1.49167 35.9691 1.4 36.0691 1.35C36.1691 1.28333 36.2608 1.25 36.3441 1.25H39.8441C40.4941 1.25 41.0275 1.35833 41.4441 1.575C41.8608 1.775 42.2025 2.09167 42.4691 2.525C42.7358 2.95833 42.9525 3.525 43.1191 4.225C43.2858 4.90833 43.4358 5.725 43.5691 6.675C43.7191 7.625 43.8775 8.725 44.0441 9.975C44.2275 11.2083 44.4608 12.6 44.7441 14.15C45.0108 13.1167 45.2358 12.2583 45.4191 11.575C45.6025 10.8917 45.7525 10.325 45.8691 9.875C46.0025 9.40833 46.1108 9.025 46.1941 8.725C46.2775 8.425 46.3525 8.15 46.4191 7.9C46.4858 7.63333 46.5608 7.35 46.6441 7.05C46.7275 6.75 46.8275 6.375 46.9441 5.925C47.0608 5.475 47.2025 4.91667 47.3691 4.25C47.5525 3.56667 47.7775 2.70833 48.0441 1.675C48.0775 1.575 48.1358 1.48333 48.2191 1.4C48.3025 1.3 48.4525 1.25 48.6691 1.25H52.5691C53.1025 1.25 53.5275 1.30833 53.8441 1.425C54.1775 1.525 54.4358 1.675 54.6191 1.875C54.8025 2.075 54.9275 2.325 54.9941 2.625C55.0608 2.90833 55.0941 3.24167 55.0941 3.625C55.0941 4.00833 55.0691 4.63333 55.0191 5.5C54.9858 6.35 54.9275 7.31667 54.8441 8.4C54.7775 9.46667 54.7025 10.575 54.6191 11.725C54.5525 12.875 54.4775 13.9417 54.3941 14.925C54.3275 15.9083 54.2691 16.7417 54.2191 17.425C54.1691 18.1083 54.1358 18.5083 54.1191 18.625C54.1025 18.7583 54.0691 18.8583 54.0191 18.925C53.9691 18.975 53.8691 19 53.7191 19H52.3441C51.3941 19 50.7191 18.8167 50.3191 18.45C49.9358 18.0667 49.7441 17.575 49.7441 16.975C49.7441 16.7917 49.7608 16.4583 49.7941 15.975C49.8441 15.4917 49.9025 14.925 49.9691 14.275C50.0358 13.625 50.1108 12.9167 50.1941 12.15C50.2775 11.3667 50.3525 10.5917 50.4191 9.825C50.4858 9.05833 50.5441 8.31667 50.5941 7.6C50.6608 6.86667 50.7108 6.225 50.7441 5.675ZM60.1992 19C59.2659 19 58.5992 18.8167 58.1992 18.45C57.7992 18.0833 57.5992 17.5583 57.5992 16.875C57.5992 16.5417 57.6242 15.975 57.6742 15.175C57.7242 14.3583 57.7909 13.4333 57.8742 12.4C57.9576 11.3667 58.0409 10.275 58.1242 9.125C58.2076 7.975 58.2909 6.89167 58.3742 5.875C58.4576 4.85833 58.5242 3.96667 58.5742 3.2C58.6242 2.43333 58.6492 1.90833 58.6492 1.625C58.6492 1.375 58.7826 1.25 59.0492 1.25H67.8492C67.9492 1.25 68.0409 1.275 68.1242 1.325C68.2076 1.375 68.2492 1.46667 68.2492 1.6L68.1492 3.075C68.1159 3.575 67.9742 3.98333 67.7242 4.3C67.4909 4.6 66.9992 4.75 66.2492 4.75H62.7992L62.5492 8.275H66.0992C66.1992 8.275 66.2909 8.3 66.3742 8.35C66.4576 8.4 66.4992 8.49167 66.4992 8.625L66.3992 10.1C66.3659 10.6 66.2242 11.0083 65.9742 11.325C65.7409 11.625 65.2492 11.775 64.4992 11.775H62.3242L62.0492 15.5H67.5492C67.6492 15.5 67.7409 15.5333 67.8242 15.6C67.9076 15.65 67.9492 15.7333 67.9492 15.85L67.8492 17.325C67.8159 17.825 67.6742 18.2333 67.4242 18.55C67.1909 18.85 66.6992 19 65.9492 19H60.1992ZM71.8486 14.55C72.5486 14.55 73.0486 14.725 73.3486 15.075C73.6486 15.4083 73.7986 15.8833 73.7986 16.5C73.7986 16.75 73.7653 17.0417 73.6986 17.375C73.632 17.6917 73.507 17.9917 73.3236 18.275C73.157 18.5417 72.9153 18.775 72.5986 18.975C72.282 19.1583 71.8653 19.25 71.3486 19.25C70.582 19.25 70.0653 19.0583 69.7986 18.675C69.532 18.275 69.3986 17.7833 69.3986 17.2C69.3986 16.8667 69.4403 16.5417 69.5236 16.225C69.607 15.9083 69.7403 15.625 69.9236 15.375C70.107 15.125 70.357 14.925 70.6736 14.775C70.9903 14.625 71.382 14.55 71.8486 14.55ZM83.6783 15.35C84.3617 15.35 84.9367 15.25 85.4033 15.05C85.8867 14.85 86.295 14.625 86.6283 14.375C86.9617 14.125 87.2533 13.9 87.5033 13.7C87.77 13.5 88.0367 13.4 88.3033 13.4C88.6367 13.4 88.8033 13.65 88.8033 14.15C88.8033 14.4167 88.77 14.7417 88.7033 15.125C88.6367 15.4917 88.545 15.9083 88.4283 16.375C88.3617 16.6583 88.195 16.9667 87.9283 17.3C87.6783 17.6333 87.3283 17.95 86.8783 18.25C86.4283 18.5333 85.87 18.775 85.2033 18.975C84.5533 19.1583 83.8033 19.25 82.9533 19.25C82.1033 19.25 81.2533 19.125 80.4033 18.875C79.5533 18.625 78.795 18.2 78.1283 17.6C77.4617 17 76.92 16.1917 76.5033 15.175C76.0867 14.1583 75.8783 12.8833 75.8783 11.35C75.8783 10.8 75.9117 10.1667 75.9783 9.45C76.0617 8.71667 76.2117 7.96667 76.4283 7.2C76.645 6.43333 76.945 5.68333 77.3283 4.95C77.7283 4.2 78.2367 3.53333 78.8533 2.95C79.47 2.36667 80.22 1.9 81.1033 1.55C82.0033 1.18333 83.07 0.999999 84.3033 0.999999C85.2867 0.999999 86.1367 1.11667 86.8533 1.35C87.5867 1.58333 88.1867 1.90833 88.6533 2.325C89.1367 2.725 89.4867 3.2 89.7033 3.75C89.9367 4.3 90.0533 4.88333 90.0533 5.5C90.0533 6.56667 89.7367 7.35 89.1033 7.85C88.4867 8.33333 87.6033 8.575 86.4533 8.575C86.0867 8.575 85.8533 8.55 85.7533 8.5C85.67 8.43333 85.6283 8.30833 85.6283 8.125C85.6117 7.55833 85.595 7.06667 85.5783 6.65C85.5617 6.23333 85.5033 5.89167 85.4033 5.625C85.3033 5.34167 85.145 5.14167 84.9283 5.025C84.7283 4.89167 84.445 4.825 84.0783 4.825C83.545 4.825 83.0867 4.94167 82.7033 5.175C82.3367 5.39167 82.02 5.68333 81.7533 6.05C81.5033 6.4 81.295 6.8 81.1283 7.25C80.9783 7.7 80.8533 8.15833 80.7533 8.625C80.67 9.09167 80.6117 9.54167 80.5783 9.975C80.5617 10.4083 80.5533 10.7833 80.5533 11.1C80.5533 12.6333 80.8033 13.725 81.3033 14.375C81.82 15.025 82.6117 15.35 83.6783 15.35ZM100.336 0.975C101.553 0.975 102.594 1.15 103.461 1.5C104.328 1.83333 105.036 2.33333 105.586 3C106.136 3.65 106.536 4.45 106.786 5.4C107.036 6.33333 107.161 7.4 107.161 8.6C107.161 9.26667 107.111 9.99167 107.011 10.775C106.928 11.5583 106.761 12.35 106.511 13.15C106.278 13.9333 105.953 14.6917 105.536 15.425C105.119 16.1583 104.578 16.8083 103.911 17.375C103.261 17.9417 102.478 18.4 101.561 18.75C100.644 19.0833 99.5609 19.25 98.3109 19.25C96.9276 19.25 95.7776 19.0417 94.8609 18.625C93.9609 18.2083 93.2359 17.65 92.6859 16.95C92.1526 16.2333 91.7693 15.3917 91.5359 14.425C91.3193 13.4583 91.2109 12.425 91.2109 11.325C91.2109 10.025 91.3609 8.75833 91.6609 7.525C91.9609 6.275 92.4609 5.16667 93.1609 4.2C93.8776 3.23333 94.8193 2.45833 95.9859 1.875C97.1526 1.275 98.6026 0.975 100.336 0.975ZM99.8109 4.85C99.2276 4.85 98.7193 4.95833 98.2859 5.175C97.8693 5.375 97.5109 5.65 97.2109 6C96.9276 6.35 96.6943 6.74167 96.5109 7.175C96.3443 7.60833 96.2109 8.05833 96.1109 8.525C96.0109 8.975 95.9443 9.41667 95.9109 9.85C95.8776 10.2667 95.8609 10.6417 95.8609 10.975C95.8609 12.4917 96.1109 13.6 96.6109 14.3C97.1276 15 97.8526 15.35 98.7859 15.35C99.5526 15.35 100.178 15.1083 100.661 14.625C101.144 14.125 101.519 13.5333 101.786 12.85C102.069 12.15 102.261 11.4333 102.361 10.7C102.461 9.95 102.511 9.31667 102.511 8.8C102.511 7.58333 102.303 6.625 101.886 5.925C101.469 5.20833 100.778 4.85 99.8109 4.85Z" fill="black"/>
</svg>
